# xmcd
#
# Track frame offsets:
#	150
#	38405
#	58427
#	85427
#	105156
#	126156
#	145656
#	164476
#	182739
#	204730
#	223849
#	243653
#
# Disc length: 3524 seconds
#
# Revision: 0
# Processed by: cddbd v1.5.2PL0 Copyright (c) Steve Scherf et al.
# Submitted via: EasyCDDAExtractor 10.5.1.1
#
DISCID=b10dc20c
DTITLE=Александр Марцинкевич - Кабриолет
DYEAR=2002
DGENRE=
TTITLE0=Грешен
TTITLE1=Цепи
TTITLE2=Без тебя
TTITLE3=А без денег жить нельзя
TTITLE4=Розу
TTITLE5=Малыш
TTITLE6=Мари
TTITLE7=Ты меня не ревнуешь
TTITLE8=Цепи
TTITLE9=Что такое счастье
TTITLE10=Берега
TTITLE11=Я не жалею
EXTD=
EXTT0=
EXTT1=
EXTT2=
EXTT3=
EXTT4=
EXTT5=
EXTT6=
EXTT7=
EXTT8=
EXTT9=
EXTT10=
EXTT11=
PLAYORDER=
